<?xml version="1.0"?>
<svg viewBox="0 0 685.2 997.4" xmlns="http://www.w3.org/2000/svg" xmlns:svg="http://www.w3.org/2000/svg" version="1.1">
 <!-- Generator: Adobe Illustrator 28.6.0, SVG Export Plug-In . SVG Version: 1.2.0 Build 709)  -->

 <g class="layer">
  <title>Layer 1</title>
  <polygon id="svg_2" points="512.0999755859375,134.39999389648438 553.2000122070312,93.30000305175781 512.0999755859375,52.29999923706055 92.19999694824219,52.29999923706055 51.099998474121094,93.30000305175781 92.19999694824219,134.39999389648438 512.0999755859375,134.39999389648438"/>
  <polygon id="svg_3" points="88.39999389648438,859.2000122070312 88.39999389648438,543.5 46.30000305175781,501.5 6.299999237060547,501.5 6.299999237060547,859.2000122070312 47.30000305175781,900.2000122070312 88.39999389648438,859.2000122070312" transform="matrix(1, 0, 0, 1, 0, 0)"/>
  <rect height="312.1" id="svg_4" width="82.2" x="261.1" y="545.3"/>
  <rect height="82.1" id="svg_5" width="82.1" x="173.4" y="457.6"/>
  <polygon id="svg_6" points="167.8000030517578,457.6000061035156 92.19999694824219,457.6000061035156 51.099998474121094,498.70001220703125 92.19999694824219,539.7999877929688 167.8000030517578,539.7999877929688 167.8000030517578,457.6000061035156"/>
  <polygon id="svg_7" points="512.2000122070312,457.6000061035156 436.5,457.6000061035156 436.5,539.7999877929688 512.2000122070312,539.7999877929688 553.2000122070312,498.70001220703125 512.2000122070312,457.6000061035156"/>
  <rect height="82.1" id="svg_8" width="82.1" x="261.1" y="457.6"/>
  <rect height="82.2" id="svg_9" width="82.2" x="348.8" y="457.6"/>
  <path d="m217.3,738.2c25.5,-61.5 38.4,-126.4 38.4,-192.9l-82.5,0l0,276.4c17.2,-26.3 32,-54.2 44.1,-83.5l0,0z" id="svg_10"/>
  <path d="m255.5,857.4l0,-235.7c-6.1,40.6 -17.2,80.3 -33.1,118.6c-13.3,32.2 -29.8,62.8 -49.3,91.3l0,25.7l82.3,0l0,0l0.1,0.1z" id="svg_12"/>
  <path d="m348.8,857.4l0,-235.7c6.1,40.6 17.2,80.3 33.1,118.6c13.3,32.2 29.8,62.8 49.3,91.3l0,25.7l-82.3,0l0,0l-0.1,0.1z" id="svg_13"/>
  <polygon id="svg_14" points="167.6999969482422,863 92.19999694824219,863 51.099998474121094,904 92.19999694824219,945.0999755859375 167.6999969482422,945.0999755859375 167.6999969482422,863"/>
  <rect height="82.2" id="svg_15" width="82.2" x="173.2" y="863"/>
  <polygon id="svg_16" points="515.9000244140625,543.5 515.9000244140625,859.2000122070312 557,900.2000122070312 598.0999755859375,859.2000122070312 598.0999755859375,501.5 558,501.5 515.9000244140625,543.5"/>
  <rect height="109.4" id="svg_17" width="82.1" x="173.4" y="140"/>
  <rect height="109.4" id="svg_18" width="82.2" x="261.1" y="342.6"/>
  <polygon id="svg_19" points="173.39999389648438,254.89999389648438 173.39999389648438,337.1000061035156 255.5,337.1000061035156 255.5,337.1000061035156 255.5,254.89999389648438 173.39999389648438,254.89999389648438"/>
  <polygon id="svg_20" points="94,254.89999389648438 94,337.1000061035156 167.8000030517578,337.1000061035156 167.8000030517578,337.1000061035156 167.8000030517578,254.89999389648438 94,254.89999389648438"/>
  <rect height="109.4" id="svg_21" width="82.1" x="173.4" y="342.6"/>
  <rect height="109.4" id="svg_22" width="82.2" x="261.1" y="140"/>
  <rect height="109.4" id="svg_23" width="82.1" x="348.8" y="140"/>
  <polygon id="svg_24" points="261.1000061035156,254.89999389648438 261.1000061035156,337.1000061035156 261.1000061035156,337.1000061035156 343.20001220703125,337.1000061035156 343.20001220703125,254.89999389648438 261.1000061035156,254.89999389648438"/>
  <polygon id="svg_25" points="348.79998779296875,254.89999389648438 348.79998779296875,337.1000061035156 431,337.1000061035156 431,337.1000061035156 431,254.89999389648438 348.79998779296875,254.89999389648438"/>
  <polygon id="svg_26" points="436.5,254.89999389648438 436.5,337.1000061035156 510.4000244140625,337.1000061035156 510.4000244140625,337.1000061035156 510.4000244140625,254.89999389648438 436.5,254.89999389648438"/>
  <rect height="109.4" id="svg_27" width="82.1" x="348.8" y="342.6"/>
  <polygon id="svg_28" points="512.2000122070312,863 436.70001220703125,863 436.70001220703125,945.0999755859375 512.2000122070312,945.0999755859375 553.2000122070312,904 512.2000122070312,863"/>
  <rect height="82.2" id="svg_29" width="82.3" x="348.8" y="863"/>
  <rect height="82.2" id="svg_30" width="82.3" x="260.9" y="863"/>
  <path d="m387,738.2c-25.5,-61.5 -38.4,-126.4 -38.4,-192.9l82.5,0l0,276.4c-17.2,-26.3 -32,-54.2 -44.1,-83.5l0,0z" id="svg_31"/>
  <path d="m436.7,613.7c5.2,31.8 14.1,62.8 26.5,92.9c12.5,30.2 28.3,58.5 47.1,84.8l0,66l-53.5,0c-7,-8.9 -13.7,-18 -20.1,-27.4l0,-216.3l0,0z" fill="#000000" id="svg_32" transform="matrix(1, 0, 0, 1, 0, 0)"/>
  <path d="m468.3,704.5c11.3,27.2 25.4,53.2 42,77.2l0,-236.4l-73.7,0c0,54.9 10.7,108.5 31.7,159.2l0,0z" id="svg_33"/>
  <polygon id="svg_34" points="88.39999389648438,333.29998779296875 88.39999389648438,258.70001220703125 51.099998474121094,296 88.39999389648438,333.29998779296875"/>
  <polygon id="svg_35" points="88.30000305175781,251 88.39999389648438,138.1999969482422 47.30000305175781,97.0999984741211 6.299999237060547,138.1999969482422 6.299999237060547,293.20001220703125 46.099998474121094,293.20001220703125 88.30000305175781,251"/>
  <polygon id="svg_36" points="88.39999389648438,341.1000061035156 88.39999389648438,453.79998779296875 46.30000305175781,495.8999938964844 6.299999237060547,495.8999938964844 6.299999237060547,298.79998779296875 46.099998474121094,298.79998779296875 88.39999389648438,341.1000061035156"/>
  <polygon id="svg_37" points="515.9000244140625,453.79998779296875 558,495.8999938964844 598.0999755859375,495.8999938964844 598.0999755859375,298.79998779296875 558.2999877929688,298.79998779296875 515.9000244140625,341.20001220703125 515.9000244140625,453.79998779296875"/>
  <polygon id="svg_38" points="558.2999877929688,293.20001220703125 598.0999755859375,293.20001220703125 598.0999755859375,138.1999969482422 557,97.0999984741211 515.9000244140625,138.1999969482422 515.9000244140625,250.89999389648438 558.2999877929688,293.20001220703125"/>
  <polygon id="svg_39" points="515.9000244140625,258.70001220703125 515.9000244140625,333.29998779296875 553.2000122070312,296 515.9000244140625,258.70001220703125"/>
  <ellipse cx="640.45" cy="908.49" fill="null" fill-opacity="null" id="svg_1" rx="31.22" ry="31.22" stroke="null" stroke-dasharray="null" stroke-linecap="null" stroke-linejoin="null" stroke-opacity="null" stroke-width="null"/>
  <rect fill="#000000" height="109.61" id="svg_40" width="74.1" x="94.32" y="140.1"/>
  <rect fill="#000000" height="109.43" id="svg_41" width="73.86" x="436.82" y="140.21"/>
  <rect fill="#000000" height="109.7" id="svg_43" width="73.75" x="93.96" y="342.69"/>
  <rect fill="#000000" height="109.61" id="svg_42" width="74.6" x="436.32" y="342.36"/>
  <path d="m167.7,613.7c-5.2,31.8 -14.1,62.8 -26.5,92.9c-12.5,30.2 -28.3,58.5 -47.1,84.8l0,66l53.5,0c7,-8.9 13.7,-18 20.1,-27.4l0,-216.3l0,0z" fill="#000000" id="svg_11" transform="matrix(1, 0, 0, 1, 0, 0)"/>
  <path d="m136.05,704.48c-11.28,27.2 -25.36,53.2 -41.93,77.2l0,-236.4l73.57,0c0,54.9 -10.68,108.5 -31.65,159.2l0,0z" fill="#000000" id="svg_89"/>
  <rect fill="#000000" height="40.27" id="svg_90" stroke="null" stroke-dasharray="null" stroke-linecap="null" stroke-linejoin="null" stroke-opacity="null" stroke-width="null" width="674.12" x="5.39" y="951.15"/>
  <path d="m5.37,945.39l0,-80.2l80.2,80.2z" fill="#000000" id="svg_91" stroke="null" stroke-dasharray="null" stroke-linecap="null" stroke-linejoin="null" stroke-opacity="null" stroke-width="null"/>
  <path d="m597.93,945.21l0,-77.7l-75.89,77.7z" fill="#000000" id="svg_93" stroke="null" stroke-dasharray="null" stroke-linecap="null" stroke-linejoin="null" stroke-opacity="null" stroke-width="null"/>
  <rect fill="#000000" height="42.94" id="svg_96" stroke="null" stroke-dasharray="null" stroke-linecap="null" stroke-linejoin="null" stroke-opacity="null" stroke-width="null" width="674.12" x="4.85" y="3.76"/>
  <path d="m6.47,52.42l0,76.44l76.45,-76.44z" fill="#000000" id="svg_95" stroke="null" stroke-dasharray="null" stroke-linecap="null" stroke-linejoin="null" stroke-opacity="null" stroke-width="null"/>
  <path d="m597.93,52.52l0,76.33l-76.32,-76.33z" fill="#000000" id="svg_94" stroke="null" stroke-dasharray="null" stroke-linecap="null" stroke-linejoin="null" stroke-opacity="null" stroke-width="null"/>
  <rect fill="#000000" height="814.72" id="svg_98" stroke="null" stroke-dasharray="null" stroke-linecap="null" stroke-linejoin="null" stroke-opacity="null" stroke-width="null" width="74.95" x="604" y="52.56"/>
 </g>
</svg>